<svg id="Layer_1" enable-background="new 0 0 512 512" height="512" viewBox="0 0 512 512" width="512" xmlns="http://www.w3.org/2000/svg"><g><g><path d="m220.055 10.627c-1.468-1.976-3.784-3.141-6.245-3.141h-33.749c-6.393 0-10.057 7.285-6.245 12.417l55.477 74.692 28.564-33.765z" fill="#ff4654"/><path d="m192.429 7.486h-12.367c-6.393 0-10.056 7.285-6.245 12.417l55.477 74.692 14.822-17.52z" fill="#fd2a39"/><path d="m331.655 7.486h-33.749c-2.462 0-4.778 1.165-6.245 3.14l-62.368 83.969h51.92c.76 0 1.476-.36 1.929-.97l54.758-73.722c3.812-5.132.148-12.417-6.245-12.417z" fill="#ff636e"/><path d="m320.609 7.486h-22.702c-2.462 0-4.778 1.165-6.245 3.14l-62.368 83.969h26.615z" fill="#ff4654"/><path d="m77.597 404.244h-49.178c-5.108 0-9.287 4.179-9.287 9.287v81.668c0 5.108 4.179 9.287 9.287 9.287h49.178c5.108 0 9.287-4.179 9.287-9.287v-81.668c0-5.108-4.179-9.287-9.287-9.287z" fill="#ff636e"/><path d="m196.75 404.244h-49.178c-5.108 0-9.287 4.179-9.287 9.287v81.668c0 5.108 4.179 9.287 9.287 9.287h49.178c5.108 0 9.287-4.179 9.287-9.287v-81.668c0-5.108-4.179-9.287-9.287-9.287z" fill="#ffd500"/><path d="m364.145 404.244h-49.178c-5.108 0-9.287 4.179-9.287 9.287v81.668c0 5.108 4.179 9.287 9.287 9.287h49.178c5.108 0 9.287-4.179 9.287-9.287v-81.668c0-5.108-4.179-9.287-9.287-9.287z" fill="#9bd069"/><path d="m483.298 404.244h-49.178c-5.108 0-9.287 4.179-9.287 9.287v81.668c0 5.108 4.179 9.287 9.287 9.287h49.178c5.108 0 9.287-4.179 9.287-9.287v-81.668c0-5.108-4.179-9.287-9.287-9.287z" fill="#80b4fb"/><path d="m53.008 495.199v-81.668c0-5.108 4.179-9.287 9.287-9.287h-33.876c-5.108 0-9.287 4.179-9.287 9.287v81.668c0 5.108 4.179 9.287 9.287 9.287h33.876c-5.108 0-9.287-4.179-9.287-9.287z" fill="#ff4654"/><path d="m172.161 495.199v-81.668c0-5.108 4.179-9.287 9.287-9.287h-33.876c-5.108 0-9.287 4.179-9.287 9.287v81.668c0 5.108 4.179 9.287 9.287 9.287h33.876c-5.108 0-9.287-4.179-9.287-9.287z" fill="#fbc700"/><path d="m339.555 495.199v-81.668c0-5.108 4.179-9.287 9.287-9.287h-33.876c-5.108 0-9.287 4.179-9.287 9.287v81.668c0 5.108 4.179 9.287 9.287 9.287h33.876c-5.107 0-9.287-4.179-9.287-9.287z" fill="#8bc852"/><path d="m458.709 495.199v-81.668c0-5.108 4.179-9.287 9.287-9.287h-33.876c-5.108 0-9.287 4.179-9.287 9.287v81.668c0 5.108 4.179 9.287 9.287 9.287h33.876c-5.108 0-9.287-4.179-9.287-9.287z" fill="#61a2f9"/><circle cx="255.858" cy="196.022" fill="#ffeb7e" r="52.266"/><path d="m232.105 196.022c0-23.921 16.076-44.074 38.009-50.281-4.534-1.283-9.312-1.985-14.256-1.985-28.865 0-52.266 23.4-52.266 52.266 0 28.865 23.4 52.266 52.266 52.266 4.945 0 9.723-.701 14.256-1.985-21.933-6.207-38.009-26.36-38.009-50.281z" fill="#ffe559"/><circle cx="255.858" cy="196.022" fill="#ffd500" r="26.133"/><path d="m258.238 196.022c0-9.171 4.728-17.234 11.876-21.897-4.101-2.675-8.995-4.236-14.257-4.236-14.433 0-26.133 11.7-26.133 26.133s11.7 26.133 26.133 26.133c5.261 0 10.156-1.56 14.257-4.236-7.147-4.663-11.876-12.725-11.876-21.897z" fill="#fbc700"/></g><g><path d="m256 162.403c-18.545 0-33.633 15.088-33.633 33.633s15.088 33.633 33.633 33.633 33.633-15.087 33.633-33.633-15.088-33.633-33.633-33.633zm0 52.266c-10.274 0-18.633-8.358-18.633-18.633s8.358-18.633 18.633-18.633 18.633 8.359 18.633 18.633-8.359 18.633-18.633 18.633z"/><path d="m112.726 285.671c-4.143 0-7.5 3.358-7.5 7.5v52.507h-52.077c-4.143 0-7.5 3.358-7.5 7.5v43.579h-17.088c-9.257 0-16.787 7.531-16.787 16.788v81.668c0 9.256 7.53 16.787 16.787 16.787h49.178c9.257 0 16.787-7.531 16.787-16.787v-81.668c0-9.257-7.53-16.788-16.787-16.788h-17.09v-36.079h104.153v36.079h-17.089c-9.257 0-16.787 7.531-16.787 16.788v81.668c0 9.256 7.53 16.787 16.787 16.787h49.178c9.257 0 16.787-7.531 16.787-16.787v-81.668c0-9.257-7.53-16.788-16.787-16.788h-17.089v-43.579c0-4.142-3.357-7.5-7.5-7.5h-52.077v-45.007h271.548v45.007h-52.076c-4.143 0-7.5 3.358-7.5 7.5v43.579h-17.089c-9.257 0-16.787 7.531-16.787 16.788v81.668c0 9.256 7.53 16.787 16.787 16.787h49.178c9.257 0 16.787-7.531 16.787-16.787v-81.668c0-9.257-7.53-16.788-16.787-16.788h-17.089v-36.079h104.153v36.079h-17.089c-9.257 0-16.788 7.531-16.788 16.788v81.668c0 9.256 7.531 16.787 16.788 16.787h49.178c9.257 0 16.787-7.531 16.787-16.787v-19.679c0-4.142-3.357-7.5-7.5-7.5s-7.5 3.358-7.5 7.5v19.679c0 .969-.818 1.787-1.787 1.787h-49.178c-.97 0-1.788-.818-1.788-1.787v-81.668c0-.969.818-1.788 1.788-1.788h49.178c.969 0 1.787.819 1.787 1.788v26.989c0 4.142 3.357 7.5 7.5 7.5s7.5-3.358 7.5-7.5v-26.989c0-9.257-7.53-16.788-16.787-16.788h-17.089v-43.579c0-4.142-3.357-7.5-7.5-7.5h-52.077v-52.507c0-4.142-3.357-7.5-7.5-7.5h-135.773v-30.35c22.132-2.809 41.218-17.88 48.82-39.273 1.387-3.903-.653-8.191-4.556-9.578-3.904-1.389-8.191.652-9.579 4.556-6.329 17.811-23.282 29.777-42.186 29.777-24.684 0-44.766-20.082-44.766-44.766s20.083-44.767 44.767-44.767c18.903 0 35.857 11.967 42.186 29.777 1.388 3.903 5.674 5.941 9.579 4.556 3.902-1.387 5.942-5.675 4.556-9.578-7.603-21.394-26.688-36.465-48.82-39.274v-7.705h21.479c7.774 0 14.099-6.324 14.099-14.098v-13.741c0-4.042-1.72-7.682-4.455-10.255l49.441-66.563c7.479-10.074.281-24.389-12.268-24.389h-33.748c-4.811 0-9.396 2.305-12.267 6.168l-29.782 40.098-29.783-40.098c-2.869-3.862-7.454-6.168-12.265-6.168h-33.749c-12.549 0-19.748 14.314-12.266 24.389l49.439 66.563c-2.735 2.573-4.454 6.213-4.454 10.255v13.741c0 7.774 6.324 14.098 14.098 14.098h21.48v7.711c-29.425 3.703-52.266 28.865-52.266 59.279s22.84 55.575 52.266 59.278v30.356h-135.774zm-34.988 126.086c.969 0 1.787.819 1.787 1.788v81.668c0 .969-.818 1.787-1.787 1.787h-49.177c-.969 0-1.787-.818-1.787-1.787v-81.668c0-.969.818-1.788 1.787-1.788zm119.154 0c.969 0 1.787.819 1.787 1.788v81.668c0 .969-.818 1.787-1.787 1.787h-49.178c-.969 0-1.787-.818-1.787-1.787v-81.668c0-.969.818-1.788 1.787-1.788zm167.394 0c.969 0 1.787.819 1.787 1.788v81.668c0 .969-.818 1.787-1.787 1.787h-49.178c-.969 0-1.787-.818-1.787-1.787v-81.668c0-.969.818-1.788 1.787-1.788zm-102.265-348.441 35.802-48.203c.053-.071.138-.114.227-.114h33.748c.118 0 .172 0 .249.153.077.154.045.197-.024.292l-53.229 71.665h-34.443c1.981-2.67 16.259-21.894 17.67-23.793zm-82.042-47.871c-.07-.095-.103-.138-.025-.292.077-.153.131-.153.249-.153h33.749c.087 0 .171.042.224.113l32.481 43.731-17.222 23.187zm47.944 98.601v-11.937h56.154v11.937z"/></g></g></svg>